<?xml version="1.0" encoding="utf-8"?>
<!-- Generator: Adobe Illustrator 15.0.0, SVG Export Plug-In . SVG Version: 6.00 Build 0)  -->
<!DOCTYPE svg PUBLIC "-//W3C//DTD SVG 1.1//EN" "http://www.w3.org/Graphics/SVG/1.1/DTD/svg11.dtd">
<svg version="1.1" id="Laag_1" xmlns="http://www.w3.org/2000/svg" xmlns:xlink="http://www.w3.org/1999/xlink" x="0px" y="0px"
	 width="378.826px" height="190.116px" viewBox="0 0 378.826 190.116" enable-background="new 0 0 378.826 190.116"
	 xml:space="preserve">
<g>
	<path fill="#68AC78" d="M190.771,71.596c3.258,0,6.052,1.168,8.389,3.502c2.334,2.336,3.502,5.131,3.502,8.388
		c0,3.258-1.141,6.083-3.421,8.47c-2.28,2.39-5.105,3.583-8.47,3.583c-3.15,0-5.92-1.193-8.307-3.583
		c-2.39-2.387-3.584-5.212-3.584-8.47c0-3.257,1.166-6.052,3.502-8.388C184.716,72.764,187.513,71.596,190.771,71.596z
		 M180.509,180.889c0.651-5.212,0.978-10.478,0.978-15.799v-38.929c0-2.28-0.109-5.021-0.326-8.226
		c-0.219-3.202-0.435-6.108-0.651-8.714h20.687c-0.762,4.996-1.141,10.534-1.141,16.614v36.648c0,6.625,0.379,12.761,1.141,18.406
		H180.509z"/>
	<path fill="#68AC78" d="M235.563,180.889h-20.522c0.758-5.645,1.14-11.781,1.14-18.406v-36.648c-1.303,0-2.769,0.082-4.397,0.245
		c-1.629,0.163-2.879,0.3-3.746,0.407v-17.266h8.144c0-11.618,1.466-20.304,4.398-26.061c4.016-7.925,11.346-11.89,21.988-11.89
		c4.342,0,8.471,0.708,12.38,2.117v16.777c-1.849-0.977-3.559-1.736-5.131-2.28c-1.576-0.542-3.177-0.814-4.806-0.814
		c-4.453,0-7.438,1.955-8.958,5.864c-0.978,2.499-1.466,6.353-1.466,11.564v4.724h17.265v17.266
		c-5.537-0.652-11.022-0.978-16.45-0.978h-0.814c0,3.042-0.057,7.765-0.163,14.171c-0.109,6.408-0.163,11.295-0.163,14.659
		c0,5.973,0.054,10.75,0.163,14.333C234.53,172.256,234.912,176.329,235.563,180.889z"/>
	<path fill="#68AC78" d="M280.518,153.362c0,3.802,0.38,6.625,1.141,8.47c1.193,2.932,3.421,4.398,6.678,4.398
		c1.629,0,3.177-0.27,4.643-0.814c1.466-0.542,3.121-1.356,4.968-2.443v15.799c-4.887,2.171-9.936,3.258-15.148,3.258
		c-8.58,0-14.553-3.474-17.917-10.424c-2.606-5.319-3.909-12.975-3.909-22.966c0-3.8,0.135-8.495,0.407-14.089
		c0.27-5.591,0.407-8.495,0.407-8.714l-7.33,0.652v-17.266h7.818c0-4.125-0.382-8.035-1.141-11.728l20.523-10.099
		c-0.761,3.693-1.168,7.602-1.222,11.728c-0.056,4.128-0.081,7.004-0.081,8.633v1.466h14.66v17.266
		c-2.065-0.216-4.317-0.433-6.76-0.652c-2.443-0.216-4.643-0.326-6.597-0.326h-1.141V153.362z"/>
	<path fill="#68AC78" d="M303.158,180.889c0.434-2.932,0.76-6.353,0.979-10.262c0.217-3.909,0.326-7.708,0.326-11.401V93.911
		c0-6.841-0.436-14.062-1.305-21.664h22.152c-0.436,3.693-0.76,7.249-0.977,10.669c-0.219,3.42-0.326,7.141-0.326,11.157v65.153
		c0,5.757,0.082,9.773,0.244,12.053s0.514,5.484,1.059,9.61H303.158z"/>
	<path fill="#68AC78" d="M357.398,153.362c0,3.802,0.379,6.625,1.141,8.47c1.193,2.932,3.42,4.398,6.678,4.398
		c1.629,0,3.176-0.27,4.643-0.814c1.465-0.542,3.119-1.356,4.967-2.443v15.799c-4.887,2.171-9.936,3.258-15.146,3.258
		c-8.58,0-14.553-3.474-17.918-10.424c-2.605-5.319-3.908-12.975-3.908-22.966c0-3.8,0.135-8.495,0.406-14.089
		c0.27-5.591,0.408-8.495,0.408-8.714l-7.33,0.652v-17.266h7.818c0-4.125-0.383-8.035-1.141-11.728l20.523-10.099
		c-0.762,3.693-1.168,7.602-1.223,11.728c-0.055,4.128-0.08,7.004-0.08,8.633v1.466h14.658v17.266
		c-2.064-0.216-4.316-0.433-6.76-0.652c-2.443-0.216-4.643-0.326-6.596-0.326h-1.141V153.362z"/>
</g>
<g>
	<path fill="#68AC78" d="M175.032,158.014c-0.529,1.355-0.91,1.993-1.036,2.354c-0.02,0.05-0.026,0.082-0.038,0.12l-0.373,0.456
		c-0.044,0.032-0.081,0.057-0.137,0.104c-0.401,0.325-1.095,1.057-2.611,2.391c-1.518,1.33-3.879,3.253-7.674,5.811
		c-3.799,2.543-9.019,5.758-16.293,9.433c-1.819,0.914-3.769,1.854-5.862,2.786c-2.091,0.923-4.34,1.881-6.722,2.648
		c-4.799,1.501-10.482,2.268-16.793,2.492c-6.316,0.203-13.316-0.145-20.869-1.382c-3.772-0.628-7.685-1.485-11.652-2.722
		c-1.983-0.62-3.98-1.335-5.956-2.189c-0.993-0.427-1.96-0.884-2.954-1.39l-3.068-1.542l-12.927-6.405
		c-4.461-2.242-9.079-4.606-13.689-7.323c-2.3-1.363-4.599-2.817-6.803-4.442c-1.1-0.813-2.177-1.668-3.193-2.586
		c-1.043-0.922-1.901-1.876-2.923-3.007c-3.988-4.325-8.208-8.648-12.435-13.263c-2.11-2.304-4.232-4.671-6.266-7.146
		c-1.013-1.238-2.006-2.506-2.906-3.81c-0.448-0.65-0.867-1.313-1.217-1.968c-0.169-0.324-0.321-0.648-0.426-0.94
		c-0.063-0.143-0.09-0.283-0.11-0.39c0.18-0.116,0.427-0.225,0.68-0.286c0.528-0.138,1.192-0.134,1.899-0.014
		c1.424,0.244,2.953,0.865,4.446,1.588c3,1.475,5.964,3.375,8.939,5.35c2.975,1.986,5.968,4.089,9.015,6.23l4.637,3.252
		c1.611,1.086,3.283,2.116,5.021,3.058c3.46,1.906,7.202,3.427,10.913,4.83c1.842,0.715,3.685,1.415,5.295,2.312l0.404,0.235
		l0.324,0.189c0.109,0.062,0.246,0.042,0.368,0.067l0.946,0.102l1.536,0.146l3.087,0.242c6.412,0.434,12.688,0.532,18.818,0.235
		c6.127-0.313,12.121-1,17.863-2.486c2.865-0.752,5.67-1.71,8.314-3.04c2.633-1.328,5.137-3.051,7.09-5.365
		c0.486-0.577,0.936-1.188,1.336-1.829c0.201-0.321,0.389-0.65,0.566-0.983l0.267-0.532l0.399-0.919l0.344-0.922l0.17-0.465
		l0.086-0.232l0.043-0.116c0.025-0.043,0.029-0.077-0.025-0.091l-1.729-0.959l-1.211-0.659l-0.884-0.471l-7.329-3.896l-1.504,0.023
		l-1.102-0.007l-2.199-0.06c-1.461-0.058-2.91-0.149-4.346-0.271c-2.869-0.244-5.682-0.611-8.416-1.112
		c-5.457-1.008-10.652-2.535-15.166-4.902c-4.498-2.344-8.265-5.686-10.19-9.846c-0.243-0.516-0.46-1.041-0.649-1.573
		c-0.095-0.267-0.182-0.535-0.265-0.805c-0.077-0.271-0.174-0.587-0.171-0.644c0.002-0.11-0.027-0.057,0.057-0.132
		c0.178-0.129,0.635-0.284,1.115-0.366c2.028-0.324,4.416-0.149,6.652,0.023c4.537,0.4,8.957,1.034,13.219,1.589
		c4.265,0.566,8.385,1.098,12.363,1.54c3.979,0.443,7.818,0.802,11.521,1.055c3.708,0.278,7.274,0.336,10.615,0.559
		c6.72,0.434,12.844,1.264,18.284,2.617c2.718,0.678,5.26,1.492,7.598,2.457c2.35,0.962,4.441,2.096,6.461,3.306
		c0.512,0.3,1.023,0.604,1.58,0.893l0.295,0.146c0.02,0.01,0.027,0.021,0.043,0.031l0.156,0.132l0.647,0.545l2.507,2.111
		l4.627,3.905l4.131,3.505l3.539,3.042c0.066,0.06,0.044,0.063,0.121,0.214l0.212,0.488l0.392,0.972
		c0.248,0.644,0.47,1.274,0.671,1.889c0.399,1.231,0.713,2.398,0.953,3.498c0.482,2.198,0.675,4.12,0.69,5.759
		C176.194,154.543,175.536,156.662,175.032,158.014z"/>
	<path fill="#68AC78" d="M40.6,126.494c-2.271-1.678-4.382-3.162-6.364-4.461c0.095-0.14,0.189-0.281,0.314-0.456
		c0.326-0.445,0.778-1.043,1.489-1.497c0.707-0.446,1.67-0.685,3.057-0.271c1.378,0.402,3.047,1.432,4.85,2.979
		c1.809,1.549,3.778,3.614,5.913,6.188c0.534,0.644,1.078,1.318,1.636,2.028l1.788,2.237c1.246,1.533,2.605,3.146,4.103,4.831
		c0.497,0.558,0.988,1.098,1.475,1.624c-0.992-0.678-1.969-1.351-2.912-2.009C49.952,133.488,44.934,129.734,40.6,126.494z"/>
	<path fill="#68AC78" d="M37.639,136.574l4.592,3.218c1.531,1.029,3.115,2.005,4.764,2.897c3.291,1.81,6.816,3.247,10.539,4.653
		c1.857,0.727,3.781,1.438,5.706,2.505l0.255,0.147l0.564,0.059l1.496,0.142l3.024,0.237c0.657,0.045,1.308,0.07,1.962,0.107
		c-0.184-0.099-0.372-0.195-0.554-0.294c-2.018-1.107-3.901-2.254-5.704-3.39c-3.6-2.277-6.859-4.523-9.873-6.654
		c-6.016-4.267-11.048-8.112-15.312-11.401c-4.259-3.248-7.918-5.801-11.08-7.628c-1.578-0.906-3.039-1.64-4.35-2.094
		c-1.285-0.479-2.536-0.542-2.853-0.242c-0.388,0.205-0.536,1.188-0.457,1.974c0.06,0.813,0.221,1.549,0.371,2.174
		c0.232,0.936,0.446,1.641,0.602,2.178l0.001,0.006c0.002,0.007,0.003,0.013,0.005,0.019l0.22,0.78
		c2.398,1.329,4.693,2.814,6.996,4.337C31.579,132.319,34.586,134.429,37.639,136.574z"/>
	<g>
		<path fill="#68AC78" d="M11.054,121.324c1.962,0.344,3.659,1.07,5.301,1.854c0.474,0.232,0.932,0.486,1.396,0.732
			c-0.247-0.465-0.521-1.043-0.816-1.81c-0.247-0.663-0.514-1.451-0.678-2.463c-0.076-0.509-0.131-1.075-0.055-1.745
			c0.076-0.645,0.325-1.52,1.09-2.171c0.768-0.645,1.744-0.796,2.557-0.772c0.838,0.021,1.627,0.198,2.421,0.431
			c1.583,0.478,3.175,1.218,4.875,2.124c1.217,0.655,2.488,1.405,3.816,2.242c0.035-0.119,0.072-0.24,0.121-0.375
			c0.255-0.647,0.658-1.56,1.721-2.476c0.531-0.445,1.26-0.862,2.148-1.063c0.884-0.208,1.89-0.187,2.888,0.041
			c2.011,0.46,4.005,1.637,6.057,3.273c0.436,0.35,0.876,0.734,1.318,1.129c-4.839-9.686-7.657-32.11-0.568-48.548
			c8.118-18.824,21.063-34.321,49.167-34.321c38.087,0,45.21,27.529,45.21,27.529l36.146,0.523c0,0-11.956-64.553-84.763-61.928
			c-47.97,1.73-69.061,31.366-78.291,59.733C2.23,93.65,6.132,113.34,8.679,121.247C9.512,121.144,10.313,121.203,11.054,121.324z"
			/>
	</g>
</g>
</svg>
